<svg width="29" height="29" viewBox="0 0 29 29" fill="none" xmlns="http://www.w3.org/2000/svg">
<path d="M20.3051 15.571H8.41921C8.15651 15.571 7.90457 15.4656 7.71882 15.2781C7.53307 15.0906 7.42871 14.8362 7.42871 14.571C7.42871 14.3058 7.53307 14.0514 7.71882 13.8639C7.90457 13.6764 8.15651 13.571 8.41921 13.571H20.3051C20.5678 13.571 20.8198 13.6764 21.0055 13.8639C21.1913 14.0514 21.2956 14.3058 21.2956 14.571C21.2956 14.8362 21.1913 15.0906 21.0055 15.2781C20.8198 15.4656 20.5678 15.571 20.3051 15.571Z" fill="#612570"/>
<path d="M14.3621 21.571C14.0994 21.571 13.8474 21.4657 13.6617 21.2781C13.4759 21.0906 13.3716 20.8362 13.3716 20.571V8.57101C13.3716 8.3058 13.4759 8.05144 13.6617 7.86391C13.8474 7.67637 14.0994 7.57101 14.3621 7.57101C14.6248 7.57101 14.8767 7.67637 15.0625 7.86391C15.2482 8.05144 15.3526 8.3058 15.3526 8.57101V20.571C15.3526 20.8362 15.2482 21.0906 15.0625 21.2781C14.8767 21.4657 14.6248 21.571 14.3621 21.571Z" fill="#612570"/>
<path d="M14.3621 27.071C7.53466 27.071 1.98096 21.464 1.98096 14.571C1.98096 7.67801 7.53466 2.07101 14.3621 2.07101C21.1896 2.07101 26.7433 7.67801 26.7433 14.571C26.7433 21.464 21.1896 27.071 14.3621 27.071ZM14.3621 4.07101C8.62717 4.07101 3.96195 8.78101 3.96195 14.571C3.96195 20.361 8.62717 25.071 14.3621 25.071C20.0971 25.071 24.7623 20.36 24.7623 14.571C24.7623 8.78201 20.0971 4.07101 14.3621 4.07101Z" fill="#612570"/>
</svg>
