<svg width="80" height="80" viewBox="0 0 80 80" fill="none" xmlns="http://www.w3.org/2000/svg">
<path d="M31.4102 9.04167C36.7435 5.87501 43.4102 5.87501 48.7435 9.04167C54.0769 12.2083 57.2102 18.0417 56.9769 24.2083V24.975C61.1769 24.975 65.6102 27.9083 67.1435 35.0417L69.7102 55.0083C71.6135 68.0417 64.0435 73.3417 53.8769 73.3417H26.2435C16.0469 73.3417 8.24352 69.675 10.3435 55.0083L12.9435 35.0417C13.3435 32.075 14.7769 29.3083 17.0102 27.275C18.7135 25.7783 20.9102 24.975 23.1769 24.975V24.2083C22.9102 18.0417 26.0802 12.2083 31.4102 9.04167ZM49.6435 35.7083C48.0135 35.7083 46.6769 37.0083 46.6769 38.6417C46.6769 40.2417 48.0135 41.575 49.6435 41.575C50.4102 41.575 51.1769 41.275 51.7102 40.7083C52.2769 40.175 52.5769 39.4083 52.5769 38.6417C52.5769 37.0083 51.2435 35.7083 49.6435 35.7083ZM30.3102 35.7083C28.6768 35.7083 27.3435 37.0083 27.3435 38.6417C27.3435 40.2417 28.6768 41.575 30.3102 41.575C31.9435 41.575 33.2435 40.2417 33.2435 38.6417C33.2435 37.0083 31.9435 35.7083 30.3102 35.7083ZM40.0102 12.475C33.5102 12.475 28.2435 17.7417 28.2435 24.2083V24.945H51.8102V24.2083C51.8102 17.7417 46.5435 12.475 40.0102 12.475Z" fill="#612570"/>
</svg>
