<svg width="338" height="338" viewBox="0 0 338 338" fill="none" xmlns="http://www.w3.org/2000/svg">
<path d="M132.708 38.2009C155.241 24.8217 183.408 24.8217 205.941 38.2009C228.475 51.58 241.713 76.2259 240.727 102.28V105.519C258.472 105.519 277.203 117.913 283.681 148.051L294.526 232.41C302.567 287.476 270.584 309.868 227.63 309.868H110.879C67.7979 309.868 34.8289 294.377 43.7014 232.41L54.6864 148.051C56.3764 135.517 62.4322 123.828 71.868 115.237C79.0646 108.913 88.3455 105.519 97.9222 105.519V102.28C96.7955 76.2259 110.189 51.58 132.708 38.2009ZM209.744 150.868C202.857 150.868 197.21 156.36 197.21 163.261C197.21 170.021 202.857 175.654 209.744 175.654C212.983 175.654 216.222 174.387 218.476 171.993C220.87 169.739 222.137 166.5 222.137 163.261C222.137 156.36 216.504 150.868 209.744 150.868ZM128.061 150.868C121.16 150.868 115.526 156.36 115.526 163.261C115.526 170.021 121.16 175.654 128.061 175.654C134.961 175.654 140.454 170.021 140.454 163.261C140.454 156.36 134.961 150.868 128.061 150.868ZM169.043 52.7067C141.581 52.7067 119.329 74.9584 119.329 102.28V105.392H218.898V102.28C218.898 74.9584 196.646 52.7067 169.043 52.7067Z" fill="#612570"/>
</svg>
