<svg width="428" height="428" viewBox="0 0 428 428" fill="none" xmlns="http://www.w3.org/2000/svg">
<path d="M53.3217 336.515V309.765H90.5933C94.2492 320.109 104.058 327.599 115.738 327.599C130.451 327.599 142.488 315.561 142.488 300.849C142.488 296.39 141.329 292.289 139.368 288.544L196.88 226.573L315.204 263.22C316.096 263.488 316.988 263.577 317.879 263.577C319.306 263.577 320.732 263.22 322.07 262.507C324.21 261.437 325.726 259.475 326.439 257.246L329.114 248.686L346.145 253.947C347.928 254.482 349.622 254.749 351.406 254.749C358.985 254.749 366.118 249.845 368.437 242.177L384.308 191.084C385.646 186.715 383.417 182.168 379.315 180.384L390.193 169.06C392.333 166.831 393.136 163.621 392.422 160.679C391.62 157.647 389.391 155.329 386.448 154.437L156.22 83.371C151.762 81.9444 146.858 82.3902 142.667 84.6193C138.476 86.8485 135.355 90.5935 133.928 95.141L107.535 180.295C104.593 189.658 109.942 199.734 119.305 202.587L177.977 220.777L126.349 276.417C123.05 274.99 119.483 274.188 115.738 274.188C104.147 274.188 94.3383 281.678 90.5933 292.021H53.3217V265.271C53.3217 260.367 49.3092 256.354 44.405 256.354C39.5008 256.354 35.4883 260.367 35.4883 265.271V336.604C35.4883 341.509 39.5008 345.521 44.405 345.521C49.3092 345.521 53.3217 341.509 53.3217 336.515ZM351.317 237.094L334.286 231.834L336.337 225.324L363.889 196.524L351.317 237.094ZM124.566 185.556L150.959 100.402L367.099 167.366L321.892 214.535C320.911 215.516 320.197 216.764 319.841 218.102L311.905 243.693L124.566 185.556ZM115.738 291.932C120.643 291.932 124.655 295.944 124.655 300.849C124.655 305.753 120.643 309.765 115.738 309.765C110.834 309.765 106.822 305.753 106.822 300.849C106.822 295.944 110.834 291.932 115.738 291.932Z" fill="#612570"/>
</svg>
