<svg width="79" height="65" viewBox="0 0 79 65" fill="none" xmlns="http://www.w3.org/2000/svg">
<g clip-path="url(#clip0_12_793)">
<path d="M33.4265 11.1194C36.3173 11.1194 38.6609 8.62997 38.6609 5.55978C38.6609 2.4891 36.3173 0 33.4265 0C30.5356 0 28.192 2.4891 28.192 5.55978C28.192 8.62997 30.5356 11.1194 33.4265 11.1194Z" fill="#612570"/>
<path d="M38.6085 21.1273V17.6242C38.6085 10.1595 28.2447 10.2416 28.2447 17.6242V31.9152H28.2651L18.4731 42.315C17.5495 43.2959 17.4369 43.3386 15.6232 43.3386C15.6217 43.3402 9.63645 43.3386 9.63645 43.3386C3.61232 43.3386 0 49.0885 0 53.9632C0 58.8378 3.61232 65 10.1707 65H20.8352C23.3522 65 26.4033 63.9781 28.9203 61.4621L60.1434 28.4001C60.8097 27.7711 61.1798 27.5747 62.3274 27.5747H70.0372C73.7482 27.5747 79 23.1077 79 16.6684C79 10.2949 73.7096 6.0456 69.7321 6.03149H57.5592C55.0423 6.03149 51.8054 7.12445 49.8746 9.17518L38.6082 21.1273H38.6085Z" fill="#612570"/>
<path d="M58.2995 11.5352H69.2519C71.9169 11.5352 73.7096 14.6994 73.7096 16.5864C73.7096 18.4734 72.4377 21.9952 69.1805 21.9952H62.5958C59.8077 21.9952 58.572 22.4104 56.967 24.1152L25.5056 57.5306C24.2334 58.8849 22.6186 59.4209 20.5458 59.4209H10.1707C7.50576 59.4209 5.15697 57.0261 5.15697 53.8811C5.15697 50.7361 7.39671 48.974 9.71368 48.974H16.8316C18.9043 48.974 20.2686 48.345 21.453 47.087L53.4455 13.1077C54.7618 11.7099 56.0623 11.5352 58.2995 11.5352Z" fill="#EEF2F5"/>
</g>
<defs>
<clipPath id="clip0_12_793">
<rect width="79" height="65" fill="white"/>
</clipPath>
</defs>
</svg>
