<svg width="512" height="397" viewBox="0 0 512 397" fill="none" xmlns="http://www.w3.org/2000/svg">
<g clip-path="url(#clip0_8_562)">
<path d="M216.402 67.777C235.117 67.777 250.289 52.603 250.289 33.889C250.289 15.172 235.117 0 216.402 0C197.686 0 182.514 15.172 182.514 33.889C182.514 52.603 197.686 67.777 216.402 67.777Z" fill="#612570"/>
<path d="M249.95 128.779V107.426C249.95 61.9262 182.855 62.4262 182.855 107.426V194.535H182.987L119.594 257.926C113.615 263.905 112.886 264.165 101.144 264.165C101.134 264.175 62.386 264.165 62.386 264.165C23.386 264.165 0 299.213 0 328.926C0 358.639 23.386 396.2 65.845 396.2H134.886C151.181 396.2 170.934 389.971 187.229 374.635L389.366 173.109C393.68 169.275 396.076 168.078 403.505 168.078H453.418C477.443 168.078 511.443 140.85 511.443 101.6C511.443 62.7512 477.193 36.8502 451.443 36.7642H372.636C356.342 36.7642 335.386 43.4262 322.886 55.9262L249.948 128.779H249.95Z" fill="#612570"/>
<path d="M377.429 70.311H448.334C465.587 70.311 477.193 89.598 477.193 101.1C477.193 112.602 468.959 134.069 447.872 134.069H405.243C387.193 134.069 379.193 136.6 368.802 146.991L165.122 350.671C156.886 358.926 146.432 362.193 133.013 362.193H65.845C48.592 362.193 33.386 347.596 33.386 328.426C33.386 309.256 47.886 298.515 62.886 298.515H108.967C122.386 298.515 131.218 294.681 138.886 287.013L346.004 79.896C354.526 71.376 362.945 70.311 377.429 70.311Z" fill="#EEF2F5"/>
</g>
<defs>
<clipPath id="clip0_8_562">
<rect width="511.443" height="396.2" fill="white"/>
</clipPath>
</defs>
</svg>
