<svg width="98" height="80" viewBox="0 0 98 80" fill="none" xmlns="http://www.w3.org/2000/svg">
<g clip-path="url(#clip0_8_190)">
<path d="M41.4658 13.6854C45.0519 13.6854 47.9591 10.6215 47.9591 6.84281C47.9591 3.0635 45.0519 0 41.4658 0C37.8796 0 34.9724 3.0635 34.9724 6.84281C34.9724 10.6215 37.8796 13.6854 41.4658 13.6854Z" fill="#612570"/>
<path d="M47.8941 26.0028V21.6913C47.8941 12.504 35.0377 12.605 35.0377 21.6913V39.2802H35.063L22.916 52.08C21.7703 53.2872 21.6306 53.3397 19.3807 53.3397C19.3788 53.3417 11.9541 53.3397 11.9541 53.3397C4.4811 53.3397 0 60.4166 0 66.4162C0 72.4157 4.4811 80 12.6169 80H25.8461C28.9685 80 32.7535 78.7422 35.8758 75.6456L74.6083 34.9539C75.4349 34.1797 75.894 33.938 77.3175 33.938H86.8816C91.4851 33.938 98 28.4402 98 20.5149C98 12.6706 91.4372 7.44069 86.5031 7.42332H71.4025C68.2804 7.42332 64.2649 8.7685 61.8697 11.2925L47.8937 26.0028H47.8941Z" fill="#612570"/>
<path d="M72.3209 14.1971H85.9074C89.2133 14.1971 91.4372 18.0915 91.4372 20.4139C91.4372 22.7364 89.8595 27.071 85.8189 27.071H77.6505C74.1919 27.071 72.659 27.582 70.6679 29.6802L31.6398 70.8069C30.0617 72.4737 28.0585 73.1334 25.4872 73.1334H12.6169C9.31094 73.1334 6.39725 70.186 6.39725 66.3152C6.39725 62.4444 9.17566 60.2756 12.0499 60.2756H20.8797C23.451 60.2756 25.1433 59.5015 26.6126 57.9531L66.2995 16.1325C67.9324 14.4121 69.5456 14.1971 72.3209 14.1971Z" fill="#EEF2F5"/>
</g>
<defs>
<clipPath id="clip0_8_190">
<rect width="98" height="80" fill="white"/>
</clipPath>
</defs>
</svg>
