<svg width="80" height="80" viewBox="0 0 80 80" fill="none" xmlns="http://www.w3.org/2000/svg">
<path d="M36.4647 20.9143L39.5433 22.4229C39.7489 22.524 39.9842 22.5475 40.2058 22.4891C40.4274 22.4306 40.6204 22.2942 40.7495 22.1048L47.0452 12.8762C47.0556 12.861 47.0656 12.8454 47.0752 12.8295C47.5856 11.9786 48.4576 12.6781 49.019 13.0467C49.2235 13.1881 49.3687 13.4 49.4268 13.6418C49.4848 13.8835 49.4517 14.1382 49.3337 14.3571L41.059 26.8829C40.9248 27.0857 40.8734 27.3323 40.9152 27.5719L42.0609 34.1357C42.2155 35.0492 42.7013 35.8737 43.4254 36.4517C44.1494 37.0297 45.0611 37.3207 45.9861 37.269L57.1195 36.6214C57.3161 36.6102 57.5111 36.663 57.6752 36.7719L68.1742 43.7581C69.2052 44.4448 68.2161 47.3743 66.898 46.6076C64.1038 44.975 61.3141 43.3347 58.529 41.6867C58.0121 41.3804 57.4104 41.2485 56.8128 41.3105L46.9661 42.32C46.7678 42.3403 46.5809 42.4222 46.4317 42.5543C46.2824 42.6864 46.1784 42.862 46.1342 43.0564C46.09 43.2507 46.108 43.4541 46.1854 43.6377C46.2629 43.8213 46.3961 43.976 46.5661 44.08L55.209 49.3752C55.2919 49.4438 55.3621 49.5263 55.4166 49.619L61.7656 60.331C61.8771 60.5212 61.9211 60.7435 61.8906 60.9618C61.8601 61.1802 61.7568 61.3819 61.5975 61.5343C61.2351 61.9476 60.8332 62.3247 60.3975 62.66C60.2946 62.7424 60.1756 62.8023 60.0481 62.8358C59.9206 62.8694 59.7875 62.8758 59.6574 62.8547C59.5272 62.8336 59.403 62.7855 59.2926 62.7134C59.1822 62.6413 59.0882 62.5469 59.0166 62.4362L52.4428 51.4905C52.1788 51.0516 51.8008 50.6926 51.349 50.4514C51.3049 50.4279 51.259 50.4078 51.2118 50.3914L42.8061 47.4914C34.6442 44.5848 32.5604 37.5767 30.8871 31.9452L30.7461 31.4738C30.6983 31.3134 30.609 31.1684 30.4872 31.0535C30.3655 30.9385 30.2156 30.8577 30.0527 30.8192C29.8898 30.7807 29.7195 30.7858 29.5592 30.834C29.3989 30.8822 29.2541 30.9718 29.1395 31.0938L20.4285 40.3643C19.5271 41.3233 17.4356 39.479 18.3285 38.4714L27.8033 27.7886C27.9017 27.6777 27.9728 27.5452 28.0109 27.4019L28.7014 24.8114C28.7037 24.8019 28.7085 24.7943 28.7109 24.7852C28.6695 24.7862 28.6276 24.79 28.5856 24.79C27.9815 24.7884 27.3794 24.7195 26.7904 24.5848L26.2285 26.6933L16.9047 37.2076C15.4128 38.8895 16.5342 40.6781 17.9437 41.8952C18.4967 42.3695 19.213 42.609 19.9399 42.5629C20.6669 42.5167 21.3471 42.1885 21.8356 41.6481L29.3947 33.6048C31.0866 39.1929 33.6709 46.261 42.1756 49.2895L50.5071 52.1643C50.6312 52.2418 50.7353 52.3475 50.8109 52.4729L57.3847 63.4181C57.6061 63.7754 57.9037 64.0794 58.2563 64.3083C58.6088 64.5372 59.0076 64.6853 59.424 64.7422C59.8405 64.7991 60.2644 64.7632 60.6654 64.6372C61.0664 64.5112 61.4346 64.2982 61.7437 64.0133L62.9018 62.9229C63.3805 62.4761 63.6914 61.8787 63.7828 61.2304C63.8741 60.5821 63.7403 59.9221 63.4037 59.3605L57.0552 48.6486C56.8685 48.3321 56.6218 48.0552 56.329 47.8333C56.3038 47.8145 56.2777 47.7969 56.2509 47.7805L49.9633 43.9281L57.0071 43.2062C57.1994 43.1851 57.3934 43.2274 57.5595 43.3267C60.3485 44.977 63.1422 46.6195 65.9404 48.2543C66.3174 48.4757 66.7412 48.6053 67.1776 48.6327C67.6139 48.6601 68.0506 48.5845 68.4523 48.4119C68.8637 48.2387 69.2287 47.9712 69.5177 47.6309C69.8067 47.2907 70.0117 46.8873 70.1161 46.4533L70.3685 45.431C70.5465 44.8371 70.5322 44.2022 70.3275 43.617C70.1228 43.0318 69.7383 42.5263 69.229 42.1729L58.7304 35.1871C58.2216 34.8504 57.6177 34.6867 57.0085 34.7205L45.8752 35.3681C45.417 35.3914 44.9663 35.2453 44.6089 34.9577C44.2515 34.6701 44.0124 34.2611 43.9371 33.8086L42.8571 27.6171L50.9452 15.3719C51.3254 14.7299 51.4461 13.9669 51.2825 13.2389C51.1189 12.5109 50.6835 11.8729 50.0652 11.4552C48.5823 10.4805 46.5928 9.97572 45.4576 11.8233L39.6409 20.3495L37.3028 19.2038C37.0009 19.0564 36.6752 18.9637 36.3409 18.93C36.1288 19.6729 35.8113 20.3815 35.398 21.0343L35.619 20.921C35.7499 20.8546 35.8943 20.8195 36.0411 20.8184C36.1878 20.8172 36.3328 20.85 36.4647 20.9143Z" fill="#612570"/>
<path d="M27.0834 22.7C27.5738 22.8219 28.0772 22.8838 28.5825 22.8843C30.1635 22.8849 31.6852 22.2823 32.8371 21.1994C33.989 20.1164 34.6843 18.6348 34.7812 17.0568C34.8782 15.4788 34.3694 13.9232 33.3587 12.7075C32.348 11.4917 30.9115 10.7074 29.3423 10.5145C27.7731 10.3216 26.1895 10.7346 24.9144 11.6694C23.6393 12.6041 22.7689 13.9901 22.4807 15.5447C22.1926 17.0992 22.5083 18.7051 23.3637 20.0347C24.219 21.3644 25.5494 22.3176 27.0834 22.7ZM24.413 15.6629C24.5467 15.1161 24.7876 14.6013 25.1216 14.1483C25.4557 13.6953 25.8763 13.3131 26.3591 13.0238C27.343 12.4675 28.4972 12.2931 29.6015 12.5338C30.424 12.7375 31.1677 13.1806 31.7384 13.8069C32.3091 14.4332 32.6813 15.2147 32.8078 16.0526C32.9344 16.8904 32.8096 17.747 32.4494 18.514C32.0891 19.2809 31.5095 19.9238 30.7838 20.3614C30.0582 20.7989 29.2191 21.0115 28.3726 20.9721C27.5262 20.9328 26.7104 20.6433 26.0285 20.1403C25.3466 19.6374 24.8291 18.9435 24.5415 18.1464C24.254 17.3493 24.2092 16.4854 24.413 15.6629ZM30.0596 58.0186C30.2859 58.128 30.5459 58.1451 30.7846 58.0663C31.0234 57.9875 31.222 57.8189 31.3387 57.5962L34.753 50.8124C34.8616 50.5874 34.8775 50.3287 34.7972 50.0921C34.7169 49.8555 34.5469 49.66 34.3238 49.5476C34.1006 49.4352 33.8422 49.415 33.6043 49.4914C33.3665 49.5677 33.1681 49.7345 33.052 49.9557L29.6368 56.7395C29.5805 56.8513 29.5468 56.973 29.5377 57.0978C29.5285 57.2225 29.544 57.3479 29.5832 57.4667C29.6225 57.5854 29.6848 57.6953 29.7665 57.79C29.8483 57.8847 29.9479 57.9624 30.0596 58.0186ZM36.2025 52.0233L35.732 55.0143C35.6928 55.2638 35.7543 55.5186 35.903 55.7228C36.0517 55.9269 36.2754 56.0636 36.5249 56.1029C36.774 56.1393 37.0274 56.0768 37.2309 55.9286C37.4344 55.7803 37.5717 55.5583 37.6134 55.31L38.0839 52.3195C38.1232 52.07 38.0617 51.815 37.913 51.6108C37.7643 51.4066 37.5406 51.2698 37.2911 51.2305C37.0415 51.1912 36.7866 51.2527 36.5823 51.4014C36.3781 51.55 36.2418 51.7738 36.2025 52.0233ZM31.3344 47.9224C31.1555 47.7441 30.9132 47.6441 30.6607 47.6445C30.4081 47.6449 30.1661 47.7455 29.9877 47.9243L27.8972 50.0214C27.8089 50.11 27.7389 50.2151 27.6911 50.3307C27.6434 50.4464 27.6189 50.5703 27.6191 50.6954C27.6193 50.8205 27.6441 50.9443 27.6922 51.0598C27.7402 51.1754 27.8105 51.2803 27.8991 51.3686C28.0797 51.5438 28.3215 51.6417 28.5731 51.6413C28.8247 51.641 29.0662 51.5424 29.2463 51.3667L31.3368 49.2691C31.515 49.0901 31.6149 48.8478 31.6144 48.5952C31.614 48.3427 31.5132 48.1007 31.3344 47.9224ZM56.2639 73.3581H52.3077C52.0679 73.3767 51.8439 73.4851 51.6805 73.6617C51.5171 73.8382 51.4263 74.0699 51.4263 74.3105C51.4263 74.551 51.5171 74.7828 51.6805 74.9593C51.8439 75.1359 52.0679 75.2443 52.3077 75.2629H56.2639C56.5038 75.2443 56.7278 75.1359 56.8912 74.9593C57.0546 74.7828 57.1453 74.551 57.1453 74.3105C57.1453 74.0699 57.0546 73.8382 56.8912 73.6617C56.7278 73.4851 56.5038 73.3767 56.2639 73.3581ZM27.6925 73.3581H23.7363C23.4964 73.3767 23.2724 73.4851 23.109 73.6617C22.9456 73.8382 22.8549 74.0699 22.8549 74.3105C22.8549 74.551 22.9456 74.7828 23.109 74.9593C23.2724 75.1359 23.4964 75.2443 23.7363 75.2629H27.6925C27.9323 75.2443 28.1563 75.1359 28.3197 74.9593C28.4831 74.7828 28.5739 74.551 28.5739 74.3105C28.5739 74.0699 28.4831 73.8382 28.3197 73.6617C28.1563 73.4851 27.9323 73.3767 27.6925 73.3581ZM49.5239 73.3581H30.4763C30.2237 73.3581 29.9815 73.4584 29.8029 73.6371C29.6242 73.8157 29.5239 74.0579 29.5239 74.3105C29.5239 74.5631 29.6242 74.8053 29.8029 74.9839C29.9815 75.1625 30.2237 75.2629 30.4763 75.2629H38.0668V76.2152H34.2858C34.0332 76.2152 33.791 76.3156 33.6124 76.4942C33.4338 76.6728 33.3334 76.915 33.3334 77.1676C33.3334 77.4202 33.4338 77.6625 33.6124 77.8411C33.791 78.0197 34.0332 78.12 34.2858 78.12H46.1906C46.4432 78.12 46.6854 78.0197 46.864 77.8411C47.0426 77.6625 47.143 77.4202 47.143 77.1676C47.143 76.915 47.0426 76.6728 46.864 76.4942C46.6854 76.3156 46.4432 76.2152 46.1906 76.2152H41.9334V75.2629H49.5239C49.7765 75.2629 50.0187 75.1625 50.1973 74.9839C50.376 74.8053 50.4763 74.5631 50.4763 74.3105C50.4763 74.0579 50.376 73.8157 50.1973 73.6371C50.0187 73.4584 49.7765 73.3581 49.5239 73.3581Z" fill="#1EAFED"/>
<path d="M0.952381 71.4533C1.47837 71.4533 1.90476 71.0269 1.90476 70.5009C1.90476 69.975 1.47837 69.5486 0.952381 69.5486C0.426395 69.5486 0 69.975 0 70.5009C0 71.0269 0.426395 71.4533 0.952381 71.4533Z" fill="#612570"/>
<path d="M5.23813 69.5486H3.80956C3.55697 69.5486 3.31473 69.6489 3.13612 69.8275C2.95752 70.0061 2.85718 70.2484 2.85718 70.5009C2.85718 70.7535 2.95752 70.9958 3.13612 71.1744C3.31473 71.353 3.55697 71.4533 3.80956 71.4533H5.23813C5.49072 71.4533 5.73296 71.353 5.91157 71.1744C6.09017 70.9958 6.19051 70.7535 6.19051 70.5009C6.19051 70.2484 6.09017 70.0061 5.91157 69.8275C5.73296 69.6489 5.49072 69.5486 5.23813 69.5486ZM76.1905 69.5486H74.7619C74.5094 69.5486 74.2671 69.6489 74.0885 69.8275C73.9099 70.0061 73.8096 70.2484 73.8096 70.5009C73.8096 70.7535 73.9099 70.9958 74.0885 71.1744C74.2671 71.353 74.5094 71.4533 74.7619 71.4533H76.1905C76.4431 71.4533 76.6853 71.353 76.8639 71.1744C77.0426 70.9958 77.1429 70.7535 77.1429 70.5009C77.1429 70.2484 77.0426 70.0061 76.8639 69.8275C76.6853 69.6489 76.4431 69.5486 76.1905 69.5486Z" fill="#612570"/>
<path d="M79.0476 71.4533C79.5736 71.4533 80 71.0269 80 70.5009C80 69.975 79.5736 69.5486 79.0476 69.5486C78.5216 69.5486 78.0952 69.975 78.0952 70.5009C78.0952 71.0269 78.5216 71.4533 79.0476 71.4533Z" fill="#612570"/>
<path d="M71.7718 69.5486H57.1427V65.87C56.5791 65.486 56.1051 64.9847 55.7532 64.4005L55.238 63.5433V69.5486H41.9046V55.2629H50.2651L49.3794 53.7895L48.1304 53.3586H41.9046V51.211L41.5546 51.0895C41.0286 50.9009 40.51 50.6924 39.9999 50.4643V69.5486H26.6666V45.7395H33.4451C32.9008 45.1355 32.3931 44.4994 31.9246 43.8348H26.6666V39.2886L24.7618 41.3152V69.5486H11.4285V36.2162H15.2599C15.3308 36.1238 15.4008 36.0314 15.4789 35.9433L16.9266 34.3114H11.4285C10.9235 34.3121 10.4394 34.5129 10.0823 34.87C9.72521 35.2271 9.52433 35.7112 9.5237 36.2162V69.5486H8.22798C8.09249 69.5309 7.95479 69.5423 7.82406 69.582C7.69333 69.6218 7.57259 69.689 7.4699 69.7791C7.36722 69.8693 7.28495 69.9803 7.22858 70.1048C7.17222 70.2292 7.14307 70.3643 7.14307 70.501C7.14307 70.6376 7.17222 70.7727 7.22858 70.8971C7.28495 71.0216 7.36722 71.1326 7.4699 71.2228C7.57259 71.3129 7.69333 71.3801 7.82406 71.4199C7.95479 71.4596 8.09249 71.471 8.22798 71.4533H71.7713C71.9068 71.471 72.0445 71.4596 72.1752 71.4199C72.306 71.3801 72.4267 71.3129 72.5294 71.2228C72.6321 71.1326 72.7144 71.0216 72.7707 70.8971C72.8271 70.7727 72.8562 70.6376 72.8562 70.501C72.8562 70.3643 72.8271 70.2292 72.7707 70.1048C72.7144 69.9803 72.6321 69.8693 72.5294 69.7791C72.4267 69.689 72.306 69.6218 72.1752 69.582C72.0445 69.5423 71.9073 69.5309 71.7718 69.5486ZM66.0318 18.9933C66.3143 18.9933 66.5905 18.9096 66.8255 18.7526C67.0604 18.5956 67.2435 18.3725 67.3516 18.1115C67.4597 17.8504 67.488 17.5632 67.4329 17.2861C67.3778 17.0089 67.2417 16.7544 67.0419 16.5546C66.8422 16.3548 66.5876 16.2188 66.3105 16.1636C66.0334 16.1085 65.7461 16.1368 65.4851 16.2449C65.2241 16.3531 65.0009 16.5362 64.844 16.7711C64.687 17.006 64.6032 17.2822 64.6032 17.5648C64.6036 17.9435 64.7542 18.3067 65.0221 18.5745C65.2899 18.8423 65.653 18.993 66.0318 18.9933ZM66.0318 16.8505C66.1731 16.8505 66.3112 16.8924 66.4286 16.9709C66.5461 17.0493 66.6376 17.1609 66.6917 17.2914C66.7458 17.4219 66.7599 17.5656 66.7324 17.7041C66.7048 17.8427 66.6368 17.9699 66.5369 18.0698C66.437 18.1697 66.3097 18.2378 66.1711 18.2653C66.0326 18.2929 65.889 18.2787 65.7584 18.2247C65.6279 18.1706 65.5164 18.0791 65.4379 17.9616C65.3594 17.8441 65.3175 17.706 65.3175 17.5648C65.3176 17.3754 65.3929 17.1938 65.5269 17.0598C65.6608 16.9259 65.8424 16.8506 66.0318 16.8505ZM54.4442 5.42191C54.2558 5.42191 54.0717 5.47776 53.9151 5.58241C53.7584 5.68706 53.6364 5.8358 53.5643 6.00983C53.4922 6.18385 53.4733 6.37535 53.5101 6.56009C53.5468 6.74483 53.6375 6.91453 53.7707 7.04772C53.9039 7.18092 54.0736 7.27162 54.2584 7.30837C54.4431 7.34512 54.6346 7.32626 54.8086 7.25417C54.9827 7.18209 55.1314 7.06002 55.236 6.9034C55.3407 6.74679 55.3966 6.56265 55.3966 6.37429C55.3963 6.12178 55.2959 5.87968 55.1173 5.70113C54.9388 5.52258 54.6967 5.42216 54.4442 5.42191ZM54.4442 6.85048C54.35 6.85048 54.2579 6.82255 54.1796 6.77023C54.1013 6.7179 54.0403 6.64353 54.0042 6.55652C53.9682 6.46951 53.9588 6.37376 53.9771 6.28139C53.9955 6.18902 54.0409 6.10417 54.1075 6.03757C54.174 5.97098 54.2589 5.92562 54.3513 5.90725C54.4436 5.88887 54.5394 5.8983 54.6264 5.93435C54.7134 5.97039 54.7878 6.03142 54.8401 6.10973C54.8924 6.18804 54.9204 6.28011 54.9204 6.37429C54.9202 6.50054 54.87 6.62159 54.7808 6.71087C54.6915 6.80014 54.5704 6.85035 54.4442 6.85048ZM55.238 26.2152C55.0496 26.2152 54.8655 26.2711 54.7089 26.3757C54.5522 26.4804 54.4302 26.6291 54.3581 26.8032C54.286 26.9772 54.2672 27.1687 54.3039 27.3534C54.3406 27.5382 54.4314 27.7079 54.5645 27.8411C54.6977 27.9743 54.8674 28.065 55.0522 28.1017C55.2369 28.1385 55.4284 28.1196 55.6024 28.0475C55.7765 27.9754 55.9252 27.8534 56.0299 27.6967C56.1345 27.5401 56.1904 27.356 56.1904 27.1676C56.1901 26.9151 56.0897 26.673 55.9111 26.4945C55.7326 26.3159 55.4905 26.2155 55.238 26.2152ZM55.238 27.6438C55.1438 27.6438 55.0517 27.6159 54.9734 27.5636C54.8951 27.5112 54.8341 27.4369 54.798 27.3499C54.762 27.2628 54.7526 27.1671 54.7709 27.0747C54.7893 26.9824 54.8347 26.8975 54.9013 26.8309C54.9679 26.7643 55.0527 26.719 55.1451 26.7006C55.2375 26.6822 55.3332 26.6916 55.4202 26.7277C55.5072 26.7637 55.5816 26.8248 55.6339 26.9031C55.6862 26.9814 55.7142 27.0734 55.7142 27.1676C55.714 27.2939 55.6638 27.4149 55.5746 27.5042C55.4853 27.5935 55.3642 27.6437 55.238 27.6438ZM75.3832 3.83429C75.1949 3.83429 75.0107 3.89015 74.8541 3.99479C74.6975 4.09944 74.5754 4.24819 74.5033 4.42221C74.4313 4.59624 74.4124 4.78773 74.4491 4.97247C74.4859 5.15721 74.5766 5.32691 74.7098 5.46011C74.843 5.5933 75.0127 5.684 75.1974 5.72075C75.3822 5.7575 75.5737 5.73864 75.7477 5.66656C75.9217 5.59447 76.0704 5.4724 76.1751 5.31578C76.2797 5.15917 76.3356 4.97503 76.3356 4.78667C76.3354 4.53416 76.2349 4.29207 76.0564 4.11351C75.8778 3.93496 75.6357 3.83454 75.3832 3.83429ZM75.3832 5.26286C75.289 5.26286 75.197 5.23493 75.1187 5.18261C75.0404 5.13028 74.9793 5.05591 74.9433 4.9689C74.9072 4.88189 74.8978 4.78614 74.9162 4.69377C74.9346 4.6014 74.9799 4.51655 75.0465 4.44995C75.1131 4.38336 75.198 4.338 75.2903 4.31963C75.3827 4.30126 75.4784 4.31069 75.5655 4.34673C75.6525 4.38277 75.7268 4.4438 75.7792 4.52211C75.8315 4.60042 75.8594 4.69249 75.8594 4.78667C75.8593 4.91293 75.8091 5.03397 75.7198 5.12325C75.6305 5.21252 75.5095 5.26273 75.3832 5.26286ZM16.6666 16.6914C16.6666 16.5031 16.6107 16.3189 16.506 16.1623C16.4014 16.0057 16.2527 15.8836 16.0786 15.8115C15.9046 15.7395 15.7131 15.7206 15.5284 15.7574C15.3436 15.7941 15.1739 15.8848 15.0407 16.018C14.9075 16.1512 14.8168 16.3209 14.7801 16.5056C14.7433 16.6904 14.7622 16.8819 14.8343 17.0559C14.9064 17.2299 15.0284 17.3787 15.1851 17.4833C15.3417 17.588 15.5258 17.6438 15.7142 17.6438C15.9667 17.6436 16.2088 17.5431 16.3873 17.3646C16.5659 17.186 16.6663 16.9439 16.6666 16.6914ZM15.238 16.6914C15.238 16.5972 15.2659 16.5052 15.3182 16.4269C15.3706 16.3486 15.4449 16.2875 15.5319 16.2515C15.619 16.2154 15.7147 16.206 15.8071 16.2244C15.8994 16.2428 15.9843 16.2881 16.0509 16.3547C16.1175 16.4213 16.1628 16.5062 16.1812 16.5985C16.1996 16.6909 16.1902 16.7867 16.1541 16.8737C16.1181 16.9607 16.057 17.035 15.9787 17.0874C15.9004 17.1397 15.8084 17.1676 15.7142 17.1676C15.5879 17.1675 15.4669 17.1173 15.3776 17.028C15.2883 16.9387 15.2381 16.8177 15.238 16.6914Z" fill="#612570"/>
<path d="M5.18472 31.9352L5.89282 31.0038L5.44567 30.7505L4.99091 31.7933H4.97615L4.51424 30.7576L4.05948 31.0186L4.75996 31.9276V31.9429L3.66424 31.801V32.3076L4.7671 32.1662V32.181L4.05948 33.09L4.48377 33.3581L4.96853 32.3076H4.98329L5.43043 33.3505L5.89996 33.0824L5.18472 32.1881V32.1733L6.30948 32.3076V31.801L5.18472 31.95V31.9352ZM3.55615 4.84715L3.14853 5.37048L3.39329 5.52477L3.67234 4.92001H3.68091L3.93805 5.52048L4.20853 5.3662L3.79662 4.85096V4.84239L4.44424 4.92001V4.6281L3.79662 4.71381V4.70524L4.20424 4.16905L3.9471 4.02334L3.6852 4.62381H3.67662L3.41043 4.02762L3.14853 4.17762L3.55234 4.70096V4.70953L2.92139 4.6281V4.92001L3.55615 4.83858V4.84715ZM72.5395 33.6757V33.1791L71.4366 33.3248V33.3105L72.1309 32.3971L71.6923 32.1486L71.2466 33.1714H71.2319L70.779 32.1557L70.3328 32.4114L71.02 33.3033V33.3176L69.9452 33.1791V33.6757L71.0271 33.5372V33.5514L70.3328 34.4429L70.749 34.7062L71.2247 33.6757H71.239L71.6776 34.6991L72.1381 34.4357L71.4366 33.5586V33.5443L72.5395 33.6757ZM33.4919 2.88191L34.0909 2.09429L33.7128 1.88L33.3281 2.76239H33.3157L32.9247 1.8862L32.54 2.10667L33.1328 2.87572V2.88858L32.2057 2.76858V3.19715L33.139 3.07762V3.09L32.54 3.85905L32.899 4.0862L33.3095 3.19715H33.3214L33.7 4.08L34.0971 3.85286L33.4919 3.0962V3.08381L34.4438 3.19715V2.76858L33.4919 2.89477V2.88191Z" fill="#1EAFED"/>
</svg>
