<svg width="390" height="390" viewBox="0 0 390 390" fill="none" xmlns="http://www.w3.org/2000/svg">
<g clip-path="url(#clip0_8_566)">
<path d="M177.766 101.957L192.774 109.311C193.776 109.804 194.923 109.919 196.003 109.634C197.084 109.349 198.025 108.684 198.654 107.76L229.346 62.7712C229.397 62.6969 229.445 62.6211 229.492 62.5437C231.98 58.3953 236.231 61.8055 238.968 63.6023C239.965 64.2918 240.673 65.3247 240.956 66.5034C241.239 67.6821 241.077 68.9237 240.502 69.9908L200.163 131.054C199.509 132.043 199.258 133.245 199.462 134.413L205.047 166.411C205.801 170.865 208.169 174.884 211.699 177.702C215.229 180.52 219.673 181.938 224.183 181.686L278.458 178.529C279.416 178.475 280.367 178.732 281.167 179.263L332.35 213.32C337.376 216.668 332.554 230.949 326.128 227.212C312.506 219.253 298.907 211.257 285.329 203.222C282.809 201.729 279.876 201.086 276.963 201.388L228.96 206.31C227.994 206.409 227.082 206.808 226.355 207.452C225.627 208.096 225.12 208.952 224.905 209.9C224.689 210.847 224.777 211.838 225.154 212.734C225.532 213.629 226.181 214.383 227.01 214.89L269.144 240.704C269.548 241.038 269.891 241.44 270.156 241.893L301.108 294.113C301.651 295.041 301.866 296.124 301.717 297.189C301.568 298.253 301.065 299.236 300.288 299.979C298.521 301.994 296.562 303.832 294.438 305.467C293.937 305.869 293.356 306.161 292.735 306.325C292.113 306.488 291.464 306.519 290.83 306.417C290.196 306.314 289.59 306.079 289.052 305.728C288.514 305.376 288.055 304.916 287.706 304.376L255.659 251.016C254.372 248.876 252.529 247.126 250.327 245.95C250.112 245.836 249.888 245.738 249.658 245.658L208.68 231.52C168.891 217.35 158.732 183.186 150.575 155.733L149.888 153.435C149.654 152.652 149.219 151.946 148.626 151.385C148.032 150.825 147.301 150.431 146.507 150.243C145.713 150.056 144.883 150.08 144.102 150.315C143.32 150.55 142.614 150.987 142.055 151.582L99.5893 196.776C95.1948 201.451 84.9991 192.46 89.3518 187.548L135.541 135.469C136.021 134.928 136.368 134.283 136.553 133.584L139.919 120.955C139.931 120.909 139.954 120.872 139.966 120.828C139.764 120.832 139.56 120.851 139.355 120.851C136.41 120.843 133.475 120.508 130.604 119.85L127.864 130.13L82.4107 181.387C75.1377 189.586 80.6046 198.305 87.4761 204.239C90.1717 206.551 93.6635 207.719 97.2075 207.494C100.752 207.269 104.068 205.668 106.449 203.034L143.299 163.823C151.548 191.065 164.146 225.522 205.607 240.286L246.222 254.301C246.828 254.678 247.335 255.194 247.703 255.805L279.751 309.163C280.83 310.905 282.281 312.387 284 313.503C285.718 314.618 287.662 315.341 289.693 315.618C291.723 315.895 293.789 315.721 295.744 315.106C297.699 314.492 299.494 313.453 301.001 312.065L306.647 306.749C308.98 304.571 310.496 301.659 310.941 298.498C311.387 295.337 310.734 292.12 309.094 289.382L278.144 237.162C277.234 235.619 276.032 234.269 274.604 233.187C274.481 233.096 274.354 233.01 274.223 232.93L243.571 214.149L277.91 210.63C278.847 210.527 279.793 210.733 280.603 211.217C294.199 219.262 307.819 227.27 321.46 235.239C323.298 236.319 325.364 236.951 327.491 237.084C329.618 237.218 331.747 236.849 333.705 236.008C335.711 235.163 337.49 233.859 338.899 232.201C340.308 230.542 341.307 228.576 341.816 226.46L343.047 221.476C343.915 218.581 343.845 215.485 342.847 212.632C341.849 209.78 339.975 207.315 337.492 205.592L286.311 171.537C283.831 169.895 280.887 169.097 277.917 169.262L223.642 172.419C221.408 172.533 219.211 171.821 217.469 170.419C215.726 169.017 214.561 167.023 214.194 164.817L208.929 134.633L248.358 74.9378C250.212 71.8081 250.8 68.0885 250.003 64.5395C249.205 60.9905 247.082 57.8801 244.068 55.8441C236.839 51.0921 227.14 48.6314 221.606 57.6385L193.25 99.2037L181.851 93.6183C180.38 92.8997 178.792 92.4478 177.162 92.2835C176.128 95.9052 174.58 99.3598 172.566 102.542L173.643 101.989C174.281 101.666 174.985 101.495 175.7 101.489C176.416 101.484 177.123 101.644 177.766 101.957Z" fill="#612570"/>
<path d="M132.031 110.662C134.422 111.257 136.876 111.558 139.339 111.561C147.047 111.564 154.465 108.626 160.08 103.347C165.696 98.0675 169.086 90.8447 169.558 83.1518C170.031 75.4589 167.55 67.8756 162.623 61.9488C157.696 56.022 150.693 52.1984 143.043 51.258C135.393 50.3175 127.673 52.3312 121.457 56.8881C115.241 61.4449 110.998 68.2017 109.593 75.78C108.188 83.3583 109.728 91.1871 113.897 97.6692C118.067 104.151 124.553 108.798 132.031 110.662ZM119.013 76.3563C119.665 73.6909 120.839 71.1814 122.468 68.973C124.096 66.7647 126.147 64.9013 128.5 63.4909C133.297 60.7789 138.924 59.9285 144.307 61.1022C148.317 62.0953 151.942 64.2551 154.724 67.3085C157.506 70.3619 159.321 74.1717 159.938 78.2563C160.555 82.3408 159.946 86.5165 158.19 90.2554C156.434 93.9944 153.608 97.1285 150.071 99.2616C146.533 101.395 142.443 102.431 138.316 102.239C134.19 102.047 130.213 100.636 126.888 98.184C123.564 95.732 121.041 92.3492 119.64 88.4635C118.238 84.5778 118.019 80.366 119.013 76.3563ZM146.54 282.84C147.643 283.374 148.911 283.457 150.075 283.073C151.238 282.689 152.207 281.867 152.776 280.781L169.42 247.71C169.95 246.613 170.027 245.352 169.636 244.199C169.245 243.046 168.416 242.092 167.328 241.544C166.24 240.996 164.98 240.898 163.821 241.27C162.661 241.642 161.694 242.455 161.128 243.534L144.479 276.605C144.205 277.15 144.04 277.743 143.996 278.351C143.951 278.96 144.026 279.571 144.218 280.15C144.409 280.729 144.713 281.264 145.111 281.726C145.51 282.188 145.995 282.566 146.54 282.84ZM176.487 253.614L174.193 268.194C174.002 269.411 174.302 270.653 175.027 271.648C175.752 272.643 176.842 273.31 178.058 273.501C179.273 273.679 180.508 273.374 181.5 272.652C182.492 271.929 183.162 270.846 183.365 269.636L185.659 255.058C185.85 253.841 185.55 252.598 184.826 251.602C184.101 250.607 183.01 249.94 181.793 249.748C180.577 249.557 179.334 249.857 178.338 250.581C177.343 251.306 176.678 252.397 176.487 253.614ZM152.755 233.621C151.883 232.752 150.701 232.265 149.47 232.267C148.239 232.268 147.059 232.759 146.19 233.631L135.999 243.854C135.568 244.286 135.226 244.798 134.994 245.362C134.761 245.926 134.642 246.53 134.643 247.14C134.644 247.75 134.765 248.354 134.999 248.917C135.233 249.48 135.576 249.991 136.008 250.422C136.888 251.276 138.067 251.753 139.293 251.751C140.52 251.749 141.697 251.269 142.575 250.412L152.766 240.186C153.635 239.314 154.122 238.133 154.12 236.902C154.118 235.67 153.627 234.491 152.755 233.621ZM274.286 357.621H255C253.83 357.711 252.738 358.24 251.942 359.1C251.145 359.961 250.703 361.091 250.703 362.263C250.703 363.436 251.145 364.566 251.942 365.426C252.738 366.287 253.83 366.816 255 366.906H274.286C275.455 366.816 276.547 366.287 277.344 365.426C278.14 364.566 278.583 363.436 278.583 362.263C278.583 361.091 278.14 359.961 277.344 359.1C276.547 358.24 275.455 357.711 274.286 357.621ZM135 357.621H115.714C114.545 357.711 113.453 358.24 112.656 359.1C111.86 359.961 111.417 361.091 111.417 362.263C111.417 363.436 111.86 364.566 112.656 365.426C113.453 366.287 114.545 366.816 115.714 366.906H135C136.17 366.816 137.262 366.287 138.058 365.426C138.855 364.566 139.297 363.436 139.297 362.263C139.297 361.091 138.855 359.961 138.058 359.1C137.262 358.24 136.17 357.711 135 357.621ZM241.429 357.621H148.571C147.34 357.621 146.159 358.11 145.288 358.98C144.418 359.851 143.929 361.032 143.929 362.263C143.929 363.495 144.418 364.676 145.288 365.546C146.159 366.417 147.34 366.906 148.571 366.906H185.575V371.549H167.143C165.911 371.549 164.731 372.038 163.86 372.909C162.989 373.78 162.5 374.961 162.5 376.192C162.5 377.423 162.989 378.604 163.86 379.475C164.731 380.346 165.911 380.835 167.143 380.835H225.179C226.41 380.835 227.591 380.346 228.462 379.475C229.332 378.604 229.821 377.423 229.821 376.192C229.821 374.961 229.332 373.78 228.462 372.909C227.591 372.038 226.41 371.549 225.179 371.549H204.425V366.906H241.429C242.66 366.906 243.841 366.417 244.712 365.546C245.582 364.676 246.071 363.495 246.071 362.263C246.071 361.032 245.582 359.851 244.712 358.98C243.841 358.11 242.66 357.621 241.429 357.621Z" fill="#1EAFED"/>
<path d="M4.64286 348.335C7.20704 348.335 9.28571 346.256 9.28571 343.692C9.28571 341.128 7.20704 339.049 4.64286 339.049C2.07868 339.049 0 341.128 0 343.692C0 346.256 2.07868 348.335 4.64286 348.335Z" fill="#612570"/>
<path d="M25.5357 339.049H18.5714C17.3401 339.049 16.1591 339.538 15.2884 340.409C14.4177 341.28 13.9286 342.461 13.9286 343.692C13.9286 344.924 14.4177 346.104 15.2884 346.975C16.1591 347.846 17.3401 348.335 18.5714 348.335H25.5357C26.7671 348.335 27.948 347.846 28.8187 346.975C29.6894 346.104 30.1786 344.924 30.1786 343.692C30.1786 342.461 29.6894 341.28 28.8187 340.409C27.948 339.538 26.7671 339.049 25.5357 339.049ZM371.429 339.049H364.464C363.233 339.049 362.052 339.538 361.181 340.409C360.311 341.28 359.821 342.461 359.821 343.692C359.821 344.924 360.311 346.104 361.181 346.975C362.052 347.846 363.233 348.335 364.464 348.335H371.429C372.66 348.335 373.841 347.846 374.712 346.975C375.582 346.104 376.071 344.924 376.071 343.692C376.071 342.461 375.582 341.28 374.712 340.409C373.841 339.538 372.66 339.049 371.429 339.049Z" fill="#612570"/>
<path d="M385.357 348.335C387.921 348.335 390 346.256 390 343.692C390 341.128 387.921 339.049 385.357 339.049C382.793 339.049 380.714 341.128 380.714 343.692C380.714 346.256 382.793 348.335 385.357 348.335Z" fill="#612570"/>
<path d="M349.888 339.05H278.571V321.116C275.824 319.244 273.513 316.801 271.797 313.953L269.286 309.774V339.05H204.286V269.407H245.043L240.725 262.224L234.636 260.123H204.286V249.654L202.579 249.062C200.015 248.142 197.487 247.125 195 246.014V339.05H130V222.98H163.046C160.392 220.036 157.917 216.935 155.633 213.695H130V191.532L120.714 201.412V339.05H55.7143V176.554H74.3925C74.7384 176.104 75.0796 175.653 75.4604 175.224L82.5175 167.268H55.7143C53.2525 167.272 50.8924 168.251 49.1517 169.992C47.4109 171.732 46.4316 174.092 46.4286 176.554V339.05H40.112C39.4515 338.963 38.7801 339.019 38.1428 339.213C37.5055 339.406 36.9169 339.734 36.4163 340.174C35.9157 340.613 35.5147 341.154 35.2399 341.761C34.9651 342.368 34.823 343.026 34.823 343.692C34.823 344.358 34.9651 345.017 35.2399 345.624C35.5147 346.231 35.9157 346.772 36.4163 347.211C36.9169 347.651 37.5055 347.978 38.1428 348.172C38.7801 348.366 39.4515 348.422 40.112 348.335H349.886C350.546 348.422 351.218 348.366 351.855 348.172C352.492 347.978 353.081 347.651 353.581 347.211C354.082 346.772 354.483 346.231 354.758 345.624C355.033 345.017 355.175 344.358 355.175 343.692C355.175 343.026 355.033 342.368 354.758 341.761C354.483 341.154 354.082 340.613 353.581 340.174C353.081 339.734 352.492 339.406 351.855 339.213C351.218 339.019 350.549 338.963 349.888 339.05ZM321.906 92.5927C323.283 92.5927 324.629 92.1843 325.775 91.419C326.92 90.6538 327.813 89.5661 328.34 88.2936C328.867 87.021 329.005 85.6207 328.736 84.2698C328.467 82.9188 327.804 81.6779 326.83 80.704C325.856 79.73 324.615 79.0667 323.264 78.798C321.913 78.5293 320.513 78.6672 319.24 79.1943C317.968 79.7214 316.88 80.614 316.115 81.7593C315.35 82.9046 314.941 84.2511 314.941 85.6285C314.943 87.4749 315.677 89.2453 316.983 90.5509C318.289 91.8566 320.059 92.5909 321.906 92.5927ZM321.906 82.1463C322.594 82.1463 323.267 82.3505 323.84 82.7332C324.413 83.1158 324.859 83.6596 325.123 84.2959C325.386 84.9322 325.455 85.6323 325.321 86.3078C325.186 86.9833 324.855 87.6037 324.368 88.0907C323.881 88.5777 323.26 88.9093 322.585 89.0437C321.909 89.178 321.209 89.1091 320.573 88.8455C319.937 88.582 319.393 88.1357 319.01 87.563C318.628 86.9904 318.423 86.3172 318.423 85.6285C318.424 84.7051 318.791 83.8198 319.444 83.1669C320.097 82.514 320.982 82.1469 321.906 82.1463ZM265.416 26.432C264.498 26.432 263.6 26.7043 262.836 27.2145C262.073 27.7247 261.478 28.4498 261.126 29.2981C260.775 30.1465 260.683 31.08 260.862 31.9807C261.041 32.8813 261.484 33.7086 262.133 34.3579C262.782 35.0072 263.609 35.4494 264.51 35.6285C265.411 35.8077 266.344 35.7157 267.193 35.3643C268.041 35.0129 268.766 34.4178 269.276 33.6543C269.786 32.8908 270.059 31.9932 270.059 31.0749C270.058 29.8439 269.568 28.6637 268.698 27.7932C267.827 26.9228 266.647 26.4333 265.416 26.432ZM265.416 33.3963C264.957 33.3963 264.508 33.2602 264.126 33.0051C263.744 32.75 263.447 32.3874 263.271 31.9633C263.095 31.5391 263.049 31.0723 263.139 30.622C263.229 30.1717 263.45 29.758 263.774 29.4334C264.099 29.1087 264.513 28.8876 264.963 28.7981C265.413 28.7085 265.88 28.7545 266.304 28.9302C266.728 29.1059 267.091 29.4034 267.346 29.7852C267.601 30.1669 267.737 30.6157 267.737 31.0749C267.737 31.6904 267.492 32.2805 267.057 32.7157C266.621 33.1509 266.031 33.3957 265.416 33.3963ZM269.286 127.8C268.367 127.8 267.47 128.072 266.706 128.582C265.943 129.092 265.348 129.817 264.996 130.666C264.645 131.514 264.553 132.448 264.732 133.348C264.911 134.249 265.353 135.076 266.003 135.725C266.652 136.375 267.479 136.817 268.38 136.996C269.281 137.175 270.214 137.083 271.062 136.732C271.911 136.38 272.636 135.785 273.146 135.022C273.656 134.258 273.929 133.361 273.929 132.442C273.927 131.211 273.438 130.031 272.567 129.161C271.697 128.29 270.517 127.801 269.286 127.8ZM269.286 134.764C268.827 134.764 268.378 134.628 267.996 134.373C267.614 134.117 267.317 133.755 267.141 133.331C266.965 132.907 266.919 132.44 267.009 131.989C267.098 131.539 267.32 131.126 267.644 130.801C267.969 130.476 268.383 130.255 268.833 130.166C269.283 130.076 269.75 130.122 270.174 130.298C270.598 130.473 270.961 130.771 271.216 131.153C271.471 131.534 271.607 131.983 271.607 132.442C271.607 133.058 271.362 133.648 270.927 134.083C270.491 134.518 269.901 134.763 269.286 134.764ZM367.494 18.6924C366.575 18.6924 365.678 18.9647 364.914 19.4748C364.151 19.985 363.556 20.7101 363.204 21.5585C362.853 22.4069 362.761 23.3404 362.94 24.241C363.119 25.1416 363.561 25.9689 364.211 26.6182C364.86 27.2675 365.687 27.7097 366.588 27.8889C367.489 28.068 368.422 27.9761 369.271 27.6247C370.119 27.2733 370.844 26.6782 371.354 25.9147C371.864 25.1512 372.137 24.2535 372.137 23.3352C372.135 22.1043 371.646 20.924 370.775 20.0536C369.905 19.1832 368.725 18.6936 367.494 18.6924ZM367.494 25.6567C367.035 25.6567 366.586 25.5205 366.204 25.2654C365.822 25.0104 365.525 24.6478 365.349 24.2236C365.173 23.7994 365.127 23.3327 365.217 22.8824C365.307 22.432 365.528 22.0184 365.852 21.6937C366.177 21.3691 366.591 21.148 367.041 21.0584C367.491 20.9688 367.958 21.0148 368.382 21.1905C368.806 21.3662 369.169 21.6638 369.424 22.0455C369.679 22.4273 369.815 22.8761 369.815 23.3352C369.815 23.9507 369.57 24.5408 369.135 24.9761C368.699 25.4113 368.109 25.6561 367.494 25.6567ZM81.25 81.3709C81.25 80.4527 80.9777 79.555 80.4675 78.7915C79.9574 78.028 79.2322 77.4329 78.3839 77.0815C77.5355 76.7301 76.602 76.6382 75.7014 76.8173C74.8007 76.9965 73.9735 77.4386 73.3241 78.088C72.6748 78.7373 72.2326 79.5646 72.0535 80.4652C71.8743 81.3658 71.9663 82.2993 72.3177 83.1477C72.6691 83.9961 73.2642 84.7212 74.0277 85.2313C74.7912 85.7415 75.6889 86.0138 76.6071 86.0138C77.8381 86.0126 79.0183 85.523 79.8888 84.6526C80.7592 83.7822 81.2488 82.6019 81.25 81.3709ZM74.2857 81.3709C74.2857 80.9118 74.4219 80.463 74.6769 80.0812C74.932 79.6995 75.2946 79.4019 75.7188 79.2262C76.143 79.0505 76.6097 79.0046 77.06 79.0941C77.5103 79.1837 77.924 79.4048 78.2486 79.7295C78.5733 80.0541 78.7944 80.4678 78.884 80.9181C78.9735 81.3684 78.9276 81.8351 78.7519 82.2593C78.5761 82.6835 78.2786 83.0461 77.8968 83.3011C77.5151 83.5562 77.0663 83.6924 76.6071 83.6924C75.9916 83.6918 75.4015 83.447 74.9663 83.0118C74.5311 82.5766 74.2863 81.9864 74.2857 81.3709Z" fill="#612570"/>
<path d="M25.2757 155.684L28.7277 151.144L26.5479 149.909L24.3309 154.993H24.2589L22.0071 149.943L19.7902 151.216L23.205 155.647V155.721L17.8634 155.03V157.5L23.2398 156.81V156.882L19.7902 161.314L21.8586 162.621L24.2218 157.5H24.2937L26.4736 162.584L28.7625 161.277L25.2757 156.917V156.845L30.7589 157.5V155.03L25.2757 155.756V155.684ZM17.3364 23.6299L15.3493 26.1811L16.5425 26.9333L17.9029 23.985H17.9446L19.1982 26.9124L20.5168 26.1602L18.5087 23.6484V23.6066L21.6659 23.985V22.562L18.5087 22.9799V22.9381L20.4959 20.3241L19.2423 19.6138L17.9655 22.5411H17.9237L16.6261 19.6347L15.3493 20.3659L17.3179 22.9172V22.959L14.242 22.562V23.985L17.3364 23.5881V23.6299ZM353.63 164.169V161.748L348.254 162.458V162.389L351.638 157.936L349.5 156.724L347.327 161.711H347.256L345.048 156.759L342.873 158.006L346.222 162.354V162.423L340.983 161.748V164.169L346.257 163.494V163.563L342.873 167.909L344.902 169.193L347.221 164.169H347.29L349.428 169.158L351.673 167.874L348.254 163.598V163.528L353.63 164.169ZM163.273 14.0493L166.193 10.2097L164.35 9.16504L162.474 13.4666H162.414L160.508 9.19522L158.632 10.27L161.523 14.0191V14.0818L157.003 13.4968V15.5861L161.553 15.0034V15.0638L158.632 18.8129L160.383 19.9202L162.384 15.5861H162.442L164.287 19.89L166.224 18.7827L163.273 15.094V15.0336L167.914 15.5861V13.4968L163.273 14.112V14.0493Z" fill="#1EAFED"/>
</g>
<defs>
<clipPath id="clip0_8_566">
<rect width="390" height="390" fill="white"/>
</clipPath>
</defs>
</svg>
