<svg width="29" height="29" viewBox="0 0 29 29" fill="none" xmlns="http://www.w3.org/2000/svg">
<path d="M23.9369 9.69559L16.7558 3.33975C16.0975 2.74531 15.2453 2.41667 14.3621 2.41667C13.4789 2.41667 12.6267 2.74531 11.9684 3.33975L4.78729 9.69559C4.40714 10.0388 4.10377 10.4599 3.8974 10.9308C3.69103 11.4017 3.58639 11.9115 3.59045 12.4264V22.9873C3.59045 23.9487 3.96873 24.8707 4.64209 25.5505C5.31545 26.2303 6.22872 26.6123 7.18099 26.6123H21.5432C22.4954 26.6123 23.4087 26.2303 24.0821 25.5505C24.7554 24.8707 25.1337 23.9487 25.1337 22.9873V12.4143C25.1361 11.9015 25.0306 11.3939 24.8243 10.9253C24.618 10.4566 24.3155 10.0375 23.9369 9.69559ZM16.7558 24.1956H11.9684V18.1539C11.9684 17.8334 12.0945 17.5261 12.3189 17.2995C12.5434 17.0729 12.8478 16.9456 13.1652 16.9456H15.5589C15.8763 16.9456 16.1808 17.0729 16.4052 17.2995C16.6297 17.5261 16.7558 17.8334 16.7558 18.1539V24.1956ZM22.74 22.9873C22.74 23.3077 22.6139 23.6151 22.3895 23.8417C22.165 24.0683 21.8606 24.1956 21.5432 24.1956H19.1495V18.1539C19.1495 17.1925 18.7712 16.2705 18.0978 15.5907C17.4245 14.9108 16.5112 14.5289 15.5589 14.5289H13.1652C12.213 14.5289 11.2997 14.9108 10.6263 15.5907C9.95297 16.2705 9.57468 17.1925 9.57468 18.1539V24.1956H7.18099C6.86356 24.1956 6.55914 24.0683 6.33469 23.8417C6.11024 23.6151 5.98414 23.3077 5.98414 22.9873V12.4143C5.98436 12.2428 6.02076 12.0732 6.09092 11.917C6.16108 11.7607 6.2634 11.6213 6.39107 11.5081L13.5722 5.16433C13.7906 4.97062 14.0713 4.86378 14.3621 4.86378C14.6528 4.86378 14.9336 4.97062 15.152 5.16433L22.3331 11.5081C22.4607 11.6213 22.5631 11.7607 22.6332 11.917C22.7034 12.0732 22.7398 12.2428 22.74 12.4143V22.9873Z" fill="#612570"/>
</svg>
