<svg width="25" height="26" viewBox="0 0 25 26" fill="none" xmlns="http://www.w3.org/2000/svg">
<path d="M12.5 0C10.0277 0 7.61099 0.738 5.55538 2.12067C3.49976 3.50335 1.89761 5.4686 0.951511 7.7679C0.00541605 10.0672 -0.242126 12.5973 0.24019 15.0382C0.722505 17.4791 1.91301 19.7213 3.66117 21.4811C5.40933 23.2409 7.63661 24.4394 10.0614 24.9249C12.4861 25.4104 14.9995 25.1612 17.2835 24.2088C19.5676 23.2564 21.5199 21.6436 22.8934 19.5743C24.2669 17.5049 25 15.0721 25 12.5833C25 10.9309 24.6767 9.29458 24.0485 7.7679C23.4203 6.24122 22.4996 4.85404 21.3388 3.68557C20.1781 2.5171 18.8001 1.59022 17.2835 0.957849C15.767 0.325478 14.1415 0 12.5 0ZM12.5 22.65C10.5222 22.65 8.58879 22.0596 6.9443 20.9535C5.29981 19.8473 4.01809 18.2751 3.26121 16.4357C2.50433 14.5962 2.3063 12.5722 2.69215 10.6194C3.078 8.66668 4.03041 6.87297 5.42894 5.46513C6.82746 4.05728 8.60929 3.09852 10.5491 2.7101C12.4889 2.32167 14.4996 2.52102 16.3268 3.28295C18.1541 4.04487 19.7159 5.33514 20.8147 6.99059C21.9135 8.64605 22.5 10.5923 22.5 12.5833C22.5 15.2532 21.4464 17.8137 19.5711 19.7015C17.6957 21.5894 15.1522 22.65 12.5 22.65Z" fill="#612570"/>
<path d="M12.5 8.80833C13.1904 8.80833 13.75 8.24496 13.75 7.55C13.75 6.85504 13.1904 6.29167 12.5 6.29167C11.8096 6.29167 11.25 6.85504 11.25 7.55C11.25 8.24496 11.8096 8.80833 12.5 8.80833Z" fill="#612570"/>
<path d="M12.5 10.0667C12.1685 10.0667 11.8505 10.1992 11.6161 10.4352C11.3817 10.6712 11.25 10.9913 11.25 11.325V17.6167C11.25 17.9504 11.3817 18.2705 11.6161 18.5064C11.8505 18.7424 12.1685 18.875 12.5 18.875C12.8315 18.875 13.1495 18.7424 13.3839 18.5064C13.6183 18.2705 13.75 17.9504 13.75 17.6167V11.325C13.75 10.9913 13.6183 10.6712 13.3839 10.4352C13.1495 10.1992 12.8315 10.0667 12.5 10.0667Z" fill="#612570"/>
</svg>
