<svg width="50" height="54" viewBox="0 0 50 54" fill="none" xmlns="http://www.w3.org/2000/svg">
<path d="M24.9878 29.25C24.3695 29.242 23.7639 29.444 23.2524 29.8289C22.7409 30.2138 22.3481 30.7631 22.1269 31.4028C21.9057 32.0425 21.8667 32.742 22.0151 33.407C22.1635 34.072 22.4922 34.6707 22.957 35.1225V38.25C22.957 38.8467 23.171 39.419 23.5518 39.841C23.9327 40.2629 24.4492 40.5 24.9878 40.5C25.5264 40.5 26.0429 40.2629 26.4237 39.841C26.8046 39.419 27.0185 38.8467 27.0185 38.25V35.1225C27.4833 34.6707 27.812 34.072 27.9605 33.407C28.1089 32.742 28.0699 32.0425 27.8486 31.4028C27.6274 30.7631 27.2346 30.2138 26.7232 29.8289C26.2117 29.444 25.606 29.242 24.9878 29.25ZM35.1414 20.25V15.75C35.1414 12.7663 34.0717 9.90483 32.1675 7.79505C30.2633 5.68526 27.6807 4.5 24.9878 4.5C22.2949 4.5 19.7122 5.68526 17.8081 7.79505C15.9039 9.90483 14.8341 12.7663 14.8341 15.75V20.25C13.2184 20.25 11.6688 20.9612 10.5263 22.227C9.3838 23.4929 8.74194 25.2098 8.74194 27V42.75C8.74194 44.5402 9.3838 46.2571 10.5263 47.523C11.6688 48.7888 13.2184 49.5 14.8341 49.5H35.1414C36.7572 49.5 38.3067 48.7888 39.4492 47.523C40.5918 46.2571 41.2336 44.5402 41.2336 42.75V27C41.2336 25.2098 40.5918 23.4929 39.4492 22.227C38.3067 20.9612 36.7572 20.25 35.1414 20.25ZM18.8956 15.75C18.8956 13.9598 19.5374 12.2429 20.6799 10.977C21.8225 9.71116 23.372 9 24.9878 9C26.6035 9 28.1531 9.71116 29.2956 10.977C30.4381 12.2429 31.08 13.9598 31.08 15.75V20.25H18.8956V15.75ZM37.1721 42.75C37.1721 43.3467 36.9582 43.919 36.5774 44.341C36.1965 44.7629 35.68 45 35.1414 45H14.8341C14.2955 45 13.779 44.7629 13.3982 44.341C13.0174 43.919 12.8034 43.3467 12.8034 42.75V27C12.8034 26.4033 13.0174 25.831 13.3982 25.409C13.779 24.9871 14.2955 24.75 14.8341 24.75H35.1414C35.68 24.75 36.1965 24.9871 36.5774 25.409C36.9582 25.831 37.1721 26.4033 37.1721 27V42.75Z" fill="#858585"/>
</svg>
