<svg width="80" height="80" viewBox="0 0 80 80" fill="none" xmlns="http://www.w3.org/2000/svg">
<g clip-path="url(#clip0_8_473)">
<path d="M71.4351 35.3309V33.7875C71.4351 30.8006 68.9405 28.373 65.8621 28.373H64.8193C61.7407 28.373 59.2379 30.8006 59.2379 33.7875C59.2391 34.2573 59.2337 35.6033 59.2441 35.8116C58.9873 38.7717 61.8673 42.5944 65.3368 42.5944C68.2723 42.5945 71.4351 39.875 71.4351 35.3309ZM65.3366 40.9259C63.0065 40.9259 60.8126 38.1769 60.8991 36.0691C61.2299 35.6692 62.0944 34.7109 63.1674 34.2466C63.5762 34.0714 64.0685 34.1964 64.3771 34.5386C65.6251 35.9312 68.1352 36.1747 69.7557 36.1809C69.6112 38.5084 67.6369 40.9259 65.3366 40.9259ZM20.677 5.42172C20.677 2.43484 18.1824 0.00718689 15.104 0.00718689H14.0612C10.9826 0.00718689 8.47977 2.43484 8.47977 5.42172V7.40734C8.47977 11.3211 11.6463 14.2286 14.5787 14.2286C18.1098 14.2286 20.9301 10.4866 20.6535 7.0875C20.6959 6.80641 20.6673 6.34109 20.677 5.42172ZM14.5787 12.56C12.2512 12.56 10.0552 9.81406 10.141 7.70391C10.4721 7.30359 11.3379 6.34062 12.4091 5.88047C12.8179 5.71359 13.3101 5.83031 13.6188 6.1725C14.8668 7.56531 17.3771 7.80859 18.9974 7.81484C18.8548 10.1161 16.9002 12.56 14.5787 12.56ZM40.483 14.1902H39.4402C36.3616 14.1902 33.8673 16.6178 33.8673 19.6047V21.5903C34.6588 26.5198 37.2895 28.4116 39.9602 28.4116C42.9157 28.4116 46.0646 25.6712 46.0646 21.1481V19.6047C46.0644 16.6178 43.5615 14.1902 40.483 14.1902ZM39.9601 26.743C37.6291 26.743 35.4388 23.9945 35.5224 21.8894C35.848 21.4908 36.7163 20.5245 37.7966 20.0636C38.1971 19.8884 38.6977 20.0134 39.0063 20.3556C40.248 21.7491 42.759 21.9919 44.379 21.998C44.2346 24.3258 42.2605 26.743 39.9601 26.743ZM75.7234 52.4756C75.7234 52.6247 75.3019 61.5313 75.2979 61.6194C75.2394 62.8041 74.3718 63.7634 73.2455 63.9803V52.5172C73.2455 52.0584 72.8701 51.683 72.4113 51.683C71.9526 51.683 71.5771 52.0584 71.5771 52.5172V63.7384L70.3424 77.3041C70.2423 78.8141 68.9574 80.0072 67.4307 80.0072C66.9801 80.0072 66.5463 79.907 66.1709 79.7236V64.5645C66.1709 64.1058 65.7954 63.7303 65.3366 63.7303C64.8777 63.7303 64.5024 64.1058 64.5024 64.5645V79.7236C64.1269 79.9072 63.7015 80.0072 63.251 80.0072C61.7159 80.0072 60.4394 78.8141 60.331 77.2873L59.0962 63.7302V52.5256C59.0962 52.0584 58.7209 51.6914 58.2619 51.6914C57.803 51.6914 57.4277 52.0586 57.4277 52.5256V63.9805C56.3182 63.7469 55.4838 62.8377 55.3921 61.7028C55.3921 61.6983 55.1366 56.415 54.9499 52.5173C54.9499 47.5534 58.9544 43.5488 63.8768 43.5488H66.7885C71.7104 43.5488 75.7234 47.5533 75.7234 52.4756ZM50.3443 38.2952C50.3443 38.4442 49.9229 47.3508 49.9188 47.4389C49.8604 48.6236 48.9927 49.583 47.8665 49.7998V38.3367C47.8665 37.878 47.491 37.5025 47.0323 37.5025C46.5734 37.5025 46.198 37.878 46.198 38.3367V49.558L44.9634 63.1236C44.8632 64.6336 43.5784 65.8267 42.0516 65.8267C41.6012 65.8267 41.1673 65.7266 40.7918 65.5431V50.3841C40.7918 49.9253 40.4163 49.5498 39.9576 49.5498C39.4988 49.5498 39.1234 49.9253 39.1234 50.3841V65.5431C38.7479 65.7266 38.3224 65.8267 37.872 65.8267C36.3368 65.8267 35.0604 64.6336 34.952 63.1069L33.7171 49.5497V38.3452C33.7171 37.878 33.3418 37.5109 32.8829 37.5109C32.424 37.5109 32.0487 37.8781 32.0487 38.3452V49.8C30.9391 49.5664 30.1048 48.6572 30.013 47.5223C30.013 47.5178 29.7576 42.2344 29.5709 38.3369C29.5709 33.373 33.5754 29.3683 38.4977 29.3683H41.4095C46.3313 29.3681 50.3443 33.3728 50.3443 38.2952ZM24.9629 24.1122C24.9629 24.2612 24.5415 33.1678 24.5374 33.2559C24.479 34.4406 23.6113 35.4 22.4851 35.6169V24.1537C22.4851 23.695 22.1096 23.3195 21.6509 23.3195C21.1921 23.3195 20.8166 23.695 20.8166 24.1537V35.375L19.582 48.9406C19.4818 50.4506 18.197 51.6437 16.6702 51.6437C16.2196 51.6437 15.7859 51.5436 15.4104 51.3602V36.2011C15.4104 35.7423 15.0349 35.3669 14.5762 35.3669C14.1173 35.3669 13.742 35.7423 13.742 36.2011V51.3602C13.3665 51.5436 12.941 51.6437 12.4905 51.6437C10.9554 51.6437 9.67898 50.4506 9.57055 48.9239L8.3357 35.3667V24.1622C8.3357 23.695 7.96039 23.328 7.50148 23.328C7.04258 23.328 6.66727 23.6952 6.66727 24.1622V35.617C5.55773 35.3834 4.72336 34.4742 4.63164 33.3394C4.63164 33.3059 4.63164 33.2811 4.62336 33.2559V33.2142C4.62336 33.2142 4.62336 33.2142 4.62336 33.2059L4.18945 24.1537C4.18945 19.1898 8.19398 15.1852 13.1163 15.1852H16.028C20.9499 15.1852 24.9629 19.1898 24.9629 24.1122Z" fill="#612570"/>
</g>
<defs>
<clipPath id="clip0_8_473">
<rect width="80" height="80" fill="white"/>
</clipPath>
</defs>
</svg>
