<svg width="512" height="512" viewBox="0 0 512 512" fill="none" xmlns="http://www.w3.org/2000/svg">
<g clip-path="url(#clip0_8_558)">
<path d="M457.186 226.118V216.24C457.186 197.124 441.221 181.587 421.519 181.587H414.845C395.142 181.587 379.124 197.124 379.124 216.24C379.132 219.247 379.097 227.861 379.164 229.194C377.52 248.139 395.952 272.604 418.157 272.604C436.944 272.605 457.186 255.2 457.186 226.118ZM418.156 261.926C403.243 261.926 389.202 244.332 389.756 230.842C391.873 228.283 397.406 222.15 404.273 219.178C406.889 218.057 410.04 218.857 412.015 221.047C420.002 229.96 436.067 231.518 446.438 231.558C445.513 246.454 432.878 261.926 418.156 261.926ZM132.334 34.6989C132.334 15.5829 116.369 0.0458984 96.667 0.0458984H89.993C70.29 0.0458984 54.272 15.5829 54.272 34.6989V47.4069C54.272 72.4549 74.538 91.0629 93.305 91.0629C115.904 91.0629 133.954 67.1139 132.184 45.3599C132.455 43.5609 132.272 40.5829 132.334 34.6989ZM93.305 80.3839C78.409 80.3839 64.355 62.8099 64.904 49.3049C67.023 46.7429 72.564 40.5799 79.42 37.6349C82.036 36.5669 85.186 37.3139 87.162 39.5039C95.149 48.4179 111.215 49.9749 121.585 50.0149C120.672 64.7429 108.163 80.3839 93.305 80.3839ZM259.093 90.8169H252.419C232.716 90.8169 216.752 106.354 216.752 125.47V138.178C221.818 169.727 238.654 181.834 255.747 181.834C274.662 181.834 294.815 164.296 294.815 135.348V125.47C294.814 106.354 278.795 90.8169 259.093 90.8169ZM255.746 171.155C240.828 171.155 226.81 153.565 227.345 140.092C229.429 137.541 234.986 131.357 241.9 128.407C244.463 127.286 247.667 128.086 249.642 130.276C257.589 139.194 273.659 140.748 284.027 140.787C283.103 155.685 270.469 171.155 255.746 171.155ZM484.631 335.844C484.631 336.798 481.934 393.8 481.908 394.364C481.534 401.946 475.981 408.086 468.773 409.474V336.11C468.773 333.174 466.37 330.771 463.434 330.771C460.498 330.771 458.095 333.174 458.095 336.11V407.926L450.193 494.746C449.552 504.41 441.329 512.046 431.558 512.046C428.674 512.046 425.898 511.405 423.495 510.231V413.213C423.495 410.277 421.092 407.874 418.156 407.874C415.219 407.874 412.817 410.277 412.817 413.213V510.231C410.414 511.406 407.691 512.046 404.808 512.046C394.983 512.046 386.814 504.41 386.12 494.639L378.217 407.873V336.164C378.217 333.174 375.815 330.825 372.878 330.825C369.941 330.825 367.539 333.175 367.539 336.164V409.475C360.438 407.98 355.098 402.161 354.511 394.898C354.511 394.869 352.876 361.056 351.681 336.111C351.681 304.342 377.31 278.712 408.813 278.712H427.448C458.948 278.712 484.631 304.341 484.631 335.844ZM322.205 245.089C322.205 246.043 319.508 303.045 319.482 303.609C319.108 311.191 313.555 317.331 306.347 318.719V245.355C306.347 242.419 303.944 240.016 301.008 240.016C298.071 240.016 295.669 242.419 295.669 245.355V317.171L287.767 403.991C287.126 413.655 278.903 421.291 269.132 421.291C266.249 421.291 263.472 420.65 261.069 419.476V322.458C261.069 319.522 258.666 317.119 255.73 317.119C252.794 317.119 250.391 319.522 250.391 322.458V419.476C247.988 420.65 245.265 421.291 242.382 421.291C232.557 421.291 224.388 413.655 223.694 403.884L215.791 317.118V245.409C215.791 242.419 213.389 240.07 210.452 240.07C207.515 240.07 205.113 242.42 205.113 245.409V318.72C198.012 317.225 192.672 311.406 192.085 304.143C192.085 304.114 190.45 270.3 189.255 245.356C189.255 213.587 214.884 187.957 246.387 187.957H265.022C296.522 187.956 322.205 213.586 322.205 245.089ZM159.764 154.318C159.764 155.272 157.067 212.274 157.041 212.838C156.667 220.42 151.114 226.56 143.906 227.948V154.584C143.906 151.648 141.503 149.245 138.567 149.245C135.631 149.245 133.228 151.648 133.228 154.584V226.4L125.326 313.22C124.685 322.884 116.462 330.52 106.691 330.52C103.807 330.52 101.031 329.879 98.628 328.705V231.687C98.628 228.751 96.225 226.348 93.289 226.348C90.352 226.348 87.95 228.751 87.95 231.687V328.705C85.547 329.879 82.824 330.52 79.941 330.52C70.116 330.52 61.947 322.884 61.253 313.113L53.35 226.347V154.638C53.35 151.648 50.948 149.299 48.011 149.299C45.074 149.299 42.672 151.649 42.672 154.638V227.949C35.571 226.454 30.231 220.635 29.644 213.372C29.644 213.158 29.644 212.999 29.591 212.838V212.571C29.591 212.571 29.591 212.571 29.591 212.518L26.814 154.584C26.814 122.815 52.443 97.1849 83.946 97.1849H102.581C134.081 97.1849 159.764 122.815 159.764 154.318Z" fill="#612570"/>
</g>
<defs>
<clipPath id="clip0_8_558">
<rect width="512" height="512" fill="white"/>
</clipPath>
</defs>
</svg>
