<svg width="39" height="54" viewBox="0 0 39 54" fill="none" xmlns="http://www.w3.org/2000/svg">
<path d="M27.6334 13.6256C27.6334 14.1292 27.6027 14.6329 27.5464 15.1308C27.572 14.9305 27.5976 14.7244 27.6181 14.5241C27.4951 15.52 27.2596 16.4872 26.9164 17.4144C26.983 17.2312 27.0547 17.0481 27.1213 16.8649C26.7781 17.7692 26.3377 18.6162 25.8 19.3946L26.1226 18.931C25.59 19.6979 24.9703 20.3905 24.284 20.9857L24.6989 20.6251C24.0023 21.2203 23.2444 21.7183 22.4352 22.1017C22.5991 22.0273 22.763 21.9472 22.9268 21.8728C22.0972 22.2562 21.2316 22.5195 20.3405 22.6569C20.5198 22.6283 20.7041 22.5996 20.8834 22.5767C19.9871 22.7084 19.0858 22.7084 18.1895 22.5767C18.3688 22.6054 18.5531 22.634 18.7324 22.6569C17.8413 22.5195 16.9757 22.2562 16.1461 21.8728C16.31 21.9472 16.4738 22.0273 16.6377 22.1017C15.8285 21.7183 15.0706 21.2261 14.3741 20.6251L14.7889 20.9857C14.1026 20.3905 13.4829 19.6979 12.9503 18.931L13.273 19.3946C12.7403 18.6162 12.2948 17.7692 11.9516 16.8649C12.0182 17.0481 12.0899 17.2312 12.1565 17.4144C11.8133 16.4872 11.5778 15.52 11.4548 14.5241C11.4805 14.7244 11.5061 14.9305 11.5265 15.1308C11.4088 14.1292 11.4088 13.1219 11.5265 12.1203C11.5009 12.3207 11.4753 12.5267 11.4548 12.727C11.5778 11.7312 11.8133 10.7639 12.1565 9.83676C12.0899 10.0199 12.0182 10.203 11.9516 10.3862C12.2948 9.48192 12.7352 8.63487 13.273 7.85651L12.9503 8.32009C13.4829 7.55318 14.1026 6.86066 14.7889 6.26544L14.3741 6.62601C15.0706 6.03079 15.8285 5.53286 16.6377 5.14941C16.4738 5.22381 16.31 5.30393 16.1461 5.37834C16.9757 4.99488 17.8413 4.73161 18.7324 4.59425C18.5531 4.62286 18.3688 4.65148 18.1895 4.67437C19.0858 4.54274 19.9871 4.54274 20.8834 4.67437C20.7041 4.64576 20.5198 4.61714 20.3405 4.59425C21.2316 4.73161 22.0972 4.99488 22.9268 5.37834C22.763 5.30393 22.5991 5.22381 22.4352 5.14941C23.2444 5.53286 24.0023 6.02506 24.6989 6.62601L24.284 6.26544C24.9703 6.86066 25.59 7.55318 26.1226 8.32009L25.8 7.85651C26.3326 8.63487 26.7781 9.48192 27.1213 10.3862C27.0547 10.203 26.983 10.0199 26.9164 9.83676C27.2596 10.7639 27.4951 11.7312 27.6181 12.727C27.5925 12.5267 27.5668 12.3207 27.5464 12.1203C27.6027 12.6183 27.6283 13.1219 27.6334 13.6256C27.6385 14.8217 28.5706 15.9721 29.682 15.9149C30.7882 15.8576 31.7357 14.9076 31.7306 13.6256C31.7203 10.8841 30.9828 8.07972 29.5386 5.84764C29.1494 5.2467 28.7345 4.6572 28.2736 4.12494C27.8076 3.58695 27.2954 3.12337 26.7628 2.67123C25.7948 1.84708 24.7142 1.24042 23.567 0.771108C18.9424 -1.12329 13.3651 0.565071 10.2359 4.82318C9.80575 5.40695 9.39603 6.01362 9.04778 6.66607C8.69952 7.3128 8.42808 7.99959 8.17713 8.69783C7.70596 9.99129 7.46525 11.3649 7.36795 12.7556C7.17846 15.4799 7.81351 18.3244 9.08363 20.6594C10.3076 22.9144 12.1565 24.8489 14.3177 25.942C14.9528 26.2625 15.6032 26.5601 16.2792 26.7719C16.9501 26.9779 17.6313 27.0924 18.3227 27.184C19.5825 27.3499 20.868 27.2355 22.1125 26.955C26.8396 25.8791 30.7985 21.3291 31.5308 15.9893C31.6384 15.2109 31.7203 14.4325 31.7203 13.6427C31.7254 12.4466 30.7729 11.2962 29.6718 11.3534C28.5655 11.3935 27.6334 12.3435 27.6334 13.6256ZM34.4296 49.4131H8.15153C6.98896 49.4131 5.8264 49.4246 4.66384 49.4131C4.5358 49.4131 4.40776 49.4017 4.28485 49.3845C4.4641 49.4131 4.64847 49.4417 4.82772 49.4646C4.62286 49.4303 4.42825 49.3673 4.23876 49.2815C4.40264 49.3559 4.56653 49.436 4.73041 49.5104C4.52556 49.4131 4.33606 49.2872 4.15681 49.1327L4.57165 49.4932C4.41801 49.3502 4.27461 49.1956 4.15169 49.0239L4.47434 49.4875C4.33606 49.2872 4.22851 49.0755 4.13633 48.8465C4.20291 49.0297 4.27461 49.2128 4.34119 49.396C4.26436 49.1842 4.21315 48.961 4.1773 48.7378C4.20291 48.9381 4.22851 49.1441 4.249 49.3444C4.16706 48.6519 4.22339 47.9194 4.22339 47.2211V44.7716C4.22339 44.1592 4.25412 43.5525 4.32582 42.9458C4.30021 43.1461 4.27461 43.3522 4.25412 43.5525C4.39752 42.3792 4.67408 41.2289 5.08891 40.1357C5.02233 40.3189 4.95063 40.502 4.88406 40.6851C5.28353 39.6435 5.79567 38.6648 6.41536 37.7663L6.09271 38.2299C6.71241 37.3428 7.42428 36.5415 8.22323 35.849L7.80839 36.2096C8.61245 35.517 9.48822 34.9447 10.4203 34.4983C10.2564 34.5727 10.0925 34.6528 9.92866 34.7272C10.9069 34.2694 11.9311 33.9546 12.9862 33.7943C12.8069 33.823 12.6225 33.8516 12.4433 33.8745C13.2013 33.7657 13.9541 33.76 14.7172 33.76H24.0894C24.9344 33.76 25.7743 33.7543 26.6194 33.8745C26.4401 33.8458 26.2558 33.8172 26.0765 33.7943C27.1264 33.9546 28.1558 34.2636 29.134 34.7272C28.9701 34.6528 28.8062 34.5727 28.6423 34.4983C29.5744 34.9447 30.4502 35.517 31.2543 36.2096L30.8394 35.849C31.6333 36.5415 32.3503 37.337 32.97 38.2299L32.6473 37.7663C33.267 38.6648 33.7791 39.6435 34.1786 40.6851C34.112 40.502 34.0403 40.3189 33.9738 40.1357C34.3835 41.2289 34.6651 42.3735 34.8085 43.5525C34.7829 43.3522 34.7573 43.1461 34.7368 42.9458C34.8341 43.81 34.8393 44.6685 34.8393 45.5385V48.3715C34.8393 48.6977 34.8495 49.0239 34.8137 49.3444C34.8393 49.1441 34.8649 48.9381 34.8854 48.7378C34.8546 48.9667 34.7983 49.1842 34.7215 49.396C34.7881 49.2128 34.8598 49.0297 34.9263 48.8465C34.8393 49.0755 34.7266 49.2872 34.5883 49.4875L34.911 49.0239C34.7829 49.1956 34.6447 49.3559 34.491 49.4932L34.9058 49.1327C34.7266 49.2872 34.5371 49.4074 34.3323 49.5104C34.4961 49.436 34.66 49.3559 34.8239 49.2815C34.6344 49.3673 34.4347 49.4246 34.2349 49.4646C34.4142 49.436 34.5986 49.4074 34.7778 49.3845C34.6651 49.4017 34.5473 49.4074 34.4296 49.4131C33.9021 49.4188 33.3592 49.6649 32.9802 50.0827C32.6268 50.4776 32.3554 51.1301 32.381 51.7024C32.4322 52.9272 33.2824 54.0089 34.4296 53.9917C36.4218 53.9574 38.1733 52.5037 38.7572 50.3689C38.9876 49.5219 38.9364 48.6119 38.9364 47.7419C38.9364 45.7502 38.9927 43.7757 38.6855 41.8012C38.2348 38.9109 36.9339 36.1924 35.1517 34.0576C33.3694 31.9228 30.9726 30.3547 28.4375 29.6564C26.983 29.2558 25.5183 29.1928 24.0331 29.1928H14.9477C13.4266 29.1928 11.9158 29.273 10.4357 29.7136C7.92106 30.4577 5.55496 32.043 3.80856 34.195C2.04679 36.3641 0.771552 39.0884 0.356717 41.9958C0.08016 43.9474 0.136496 45.9048 0.136496 47.8736C0.136496 48.7778 0.0904029 49.7222 0.382324 50.5864C0.76131 51.6967 1.36564 52.5724 2.25164 53.2305C2.94304 53.7399 3.8188 53.986 4.63823 53.9975C5.0377 54.0032 5.43717 53.9975 5.83664 53.9975H34.4347C35.5051 53.9975 36.5345 52.9444 36.4832 51.7081C36.432 50.4605 35.5819 49.4131 34.4296 49.4131Z" fill="#858585"/>
</svg>
