<svg width="271" height="199" viewBox="0 0 271 199" fill="none" xmlns="http://www.w3.org/2000/svg">
<path d="M13.5302 192.185V171.942H41.8084C44.5821 179.769 52.0237 185.437 60.886 185.437C72.0484 185.437 81.1813 176.328 81.1813 165.195C81.1813 161.821 80.3018 158.717 78.8135 155.883L122.448 108.987L212.221 136.72C212.898 136.922 213.574 136.99 214.251 136.99C215.333 136.99 216.416 136.72 217.431 136.18C219.054 135.37 220.204 133.886 220.745 132.199L222.775 125.721L235.696 129.702C237.049 130.107 238.335 130.309 239.688 130.309C245.438 130.309 250.85 126.598 252.609 120.795L264.651 82.1317C265.666 78.8253 263.974 75.3841 260.863 74.0345L269.116 65.4651C270.74 63.7782 271.348 61.3491 270.807 59.1224C270.198 56.8282 268.507 55.0738 266.275 54.399L91.5995 0.620706C88.217 -0.458909 84.4962 -0.121533 81.3166 1.56537C78.137 3.25226 75.7692 6.08626 74.6868 9.52753L54.6621 73.9671C52.4296 81.052 56.4886 88.6768 63.592 90.836L108.106 104.601L68.9364 146.706C66.4333 145.627 63.7273 145.019 60.886 145.019C52.0913 145.019 44.6497 150.687 41.8084 158.514H13.5302V138.272C13.5302 134.56 10.4859 131.524 6.76511 131.524C3.0443 131.524 0 134.56 0 138.272V192.252C0 195.964 3.0443 199 6.76511 199C10.4859 199 13.5302 195.964 13.5302 192.185ZM239.62 116.949L226.699 112.968L228.255 108.042L249.159 86.2477L239.62 116.949ZM67.5834 77.9481L87.6081 13.5086L251.594 64.1831L217.295 99.8778C216.551 100.62 216.01 101.565 215.739 102.577L209.718 121.942L67.5834 77.9481ZM60.886 158.447C64.6068 158.447 67.6511 161.483 67.6511 165.195C67.6511 168.906 64.6068 171.942 60.886 171.942C57.1651 171.942 54.1208 168.906 54.1208 165.195C54.1208 161.483 57.1651 158.447 60.886 158.447Z" fill="#612570"/>
</svg>
