<svg width="29" height="24" viewBox="0 0 29 24" fill="none" xmlns="http://www.w3.org/2000/svg">
<path d="M28.7997 22.7241L15.1194 0.376963C14.8145 -0.125654 14.1286 -0.125654 13.8237 0.376963L0.143406 22.8015C0.715007 21.8735 -0.885476 23.9613 0.791221 24H28.2281C29.7524 23.9613 28.4948 22.3375 28.7997 22.7241ZM2.16306 22.4148L14.4715 2.27145L26.8562 22.4148H2.16306ZM15.2718 7.72292V13.909C15.2718 14.3343 14.9288 14.6822 14.5097 14.6822C14.0905 14.6822 13.7475 14.3343 13.7475 13.909V7.72292C13.7475 7.29762 14.0905 6.94966 14.5097 6.94966C14.9288 6.94966 15.2718 7.29762 15.2718 7.72292ZM14.5478 16.2288C13.2902 16.2288 12.2614 17.2727 12.2614 18.5485C12.2614 19.8244 13.2902 20.8683 14.5478 20.8683C15.8053 20.8683 16.8342 19.8244 16.8342 18.5485C16.7961 17.2727 15.7672 16.2288 14.5478 16.2288ZM14.5478 19.3218C14.1286 19.3218 13.7856 18.9738 13.7856 18.5485C13.7856 18.1232 14.1286 17.7753 14.5478 17.7753C14.9669 17.7753 15.3099 18.1232 15.3099 18.5485C15.2718 18.9738 14.9288 19.3218 14.5478 19.3218Z" fill="#612570"/>
</svg>
